# xmcd
#
# Track frame offsets:
#	150
#	19711
#	34630
#	50742
#	64081
#	84763
#	102025
#	118224
#	136635
#
# Disc length: 2285 seconds
#
# Revision: 0
# Processed by: cddbd v1.5.2PL0 Copyright (c) Steve Scherf et al.
# Submitted via: audiograbber 1.83.01
#
DISCID=6908eb09
DTITLE=Foghat - The Complete Bearsville Albums Collection [CD 01) - Foghat [rem
DTITLE=astered 2016]
DYEAR=1972
DGENRE=Rock
TTITLE0=I Just Want To Make Love To You
TTITLE1=Trouble, Trouble
TTITLE2=Leavin' Again (Again!)
TTITLE3=Fool's Hall Of Fame
TTITLE4=Sarah Lee
TTITLE5=Highway (Killing Me)
TTITLE6=Maybelline
TTITLE7=A Hole To Hide In
TTITLE8=Gotta Get To Know You
EXTD=
EXTT0=
EXTT1=
EXTT2=
EXTT3=
EXTT4=
EXTT5=
EXTT6=
EXTT7=
EXTT8=
PLAYORDER=
